# xmcd CD database file
#
# Track frame offsets:
#	150
#	21130
#	44472
#	67672
#	86705
#	110375
#	130435
#	149712
#	170515
#	191222
#	207222
#	229997
#	248730
#	276062
#	299657
#
# Disc length: 4283 seconds
#
# Revision: 0
# Processed by: cddbd v1.4PL0 Copyright (c) Steve Scherf et al.
# Submitted via: NeoAudio 9.9.9
#
DISCID=e910b90f
DTITLE=José Alberto "El Canario" - Grandes Éxitos - La Historia de
DYEAR=1995
DGENRE=Salsa
TTITLE0=Discúlpeme Señora
TTITLE1=Te voy a Saciar de Mi
TTITLE2=Bailemos otra Vez
TTITLE3=Sueño Contigo
TTITLE4=La Gitana
TTITLE5=Hoy Quiero Confesar
TTITLE6=Me Boto
TTITLE7=Mis Amores
TTITLE8=Nadie se Compara Contigo
TTITLE9=A Gozar
TTITLE10=Cierra los Ojos
TTITLE11=La Crítica
TTITLE12=Es Tu Amor
TTITLE13=Quieres ser Mi Amante
TTITLE14=Con Sandra en la Cama
EXTD=YEAR: 1995
EXTT0=
EXTT1=
EXTT2=
EXTT3=
EXTT4=
EXTT5=
EXTT6=
EXTT7=
EXTT8=
EXTT9=
EXTT10=
EXTT11=
EXTT12=
EXTT13=
EXTT14=
PLAYORDER=
